<svg xmlns="http://www.w3.org/2000/svg" viewBox="0 0 494.22 171.94"><defs><style>.cls-1{fill:#fff;}</style></defs><title>Asset 6</title><g id="Layer_2" data-name="Layer 2"><g id="Layer_1-2" data-name="Layer 1"><path id="o-0" class="cls-1" d="M170.07,109.29H490.94a3.1,3.1,0,0,1,3.28,2.88h0a3.1,3.1,0,0,1-3.28,2.87H170.07a3.09,3.09,0,0,1-3.27-2.87h0A3.09,3.09,0,0,1,170.07,109.29Z"/><path id="text-0" class="cls-1" d="M215.59,70.36q0,32.17-30.78,32.17H167.62V38.84H183.7q14.43,0,23.16,6.75t8.73,24.77Zm-15.53,0q0-11.85-3.68-16.23t-10.47-4.35h-3.22V91.59h3.22q6.89,0,10.53-4.74t3.62-16.49ZM241.6,49.59V64.94h22.06V75.42H241.6V91.68h26.56v10.85H226.53V38.84h41.63L266.6,49.59Zm63.6,52.94L288.45,51.34q.93,7,1.58,13.45t.65,13.75h0v24H277.9V38.84h18.82l16.2,51a173.66,173.66,0,0,1-2.21-26.66h0V38.84h12.78v63.69Zm58.06-52.11v52.11H348.19V50.42H330.27V38.84h51.56l-1.47,11.58ZM407,49.59V64.94h22.05V75.42H407V91.68h26.56v10.85H391.93V38.84h41.64L432,49.59Zm33.27-10.75h16.26l9.56,20.4,9.83-20.4h15.9L474.92,68.06l18.47,34.47H477.13L465.92,78.27l-11,24.26h-16l18-33.82Z"/><path id="text-1" class="cls-1" d="M173.52,129.5v3.55l1.51.2,0,.89h-5l-.11-.58a11.28,11.28,0,0,1,1.43-.62h0v-3.35L168,123.28l-1.15-.15,0-.89h4.5l.1.58-1.11.49,1.84,3.48.49,1.51h.09l2.5-5-1.4-.18v-.89h4.22l.11.58a8.18,8.18,0,0,1-1.36.58h0Zm10.13-7.62h0a5.37,5.37,0,0,1,4.16,1.79,6.6,6.6,0,0,1,1.64,4.66h0a6.32,6.32,0,0,1-1.58,4.48,5.35,5.35,0,0,1-4.09,1.69h0a5.45,5.45,0,0,1-4.16-1.72,6.27,6.27,0,0,1-1.63-4.52h0a6.66,6.66,0,0,1,1.6-4.6A5.21,5.21,0,0,1,183.65,121.88Zm-1.78,1.71h0a3.66,3.66,0,0,0-1.09,1.73,8.32,8.32,0,0,0-.41,2.65h0a6.14,6.14,0,0,0,1,3.69,3.22,3.22,0,0,0,2.72,1.39h0a4.72,4.72,0,0,0,1.22-.17h0a3.78,3.78,0,0,0,1.24-1.76,7.2,7.2,0,0,0,.47-2.69h0a6.39,6.39,0,0,0-1-3.72,3.07,3.07,0,0,0-2.63-1.41h0A4.36,4.36,0,0,0,181.87,123.59Zm20.68-1.35.11.58a11.93,11.93,0,0,1-1.55.66h0V129c-.06,3.63-1.57,5.44-4.55,5.44h0a5,5,0,0,1-3.82-1.47,5.73,5.73,0,0,1-1.42-4.06h0v-5.64l-1.39-.18v-.89h5l.11.58a12.28,12.28,0,0,1-1.54.66h0v5.76a4.07,4.07,0,0,0,.84,2.76,2.94,2.94,0,0,0,2.34.95h0a3.57,3.57,0,0,0,1.65-.38h0q1.08-.87,1.08-3.51h0v-5.73l-1.59-.2,0-.89ZM213.3,133.1l1.2.15,0,.89h-3.2l-2.55-4.68-1.84,0V133l1.8.24v.89h-5.44l-.11-.58,1.54-.66v-9.62l-1.31-.13,0-.91,5.44-.15a5.09,5.09,0,0,1,3.29,1,3.19,3.19,0,0,1,1.26,2.59h0a3.49,3.49,0,0,1-.66,2,3.92,3.92,0,0,1-1.85,1.4h0Zm-6.41-9.5v4.5a8.9,8.9,0,0,0,1.39.14h0a2.68,2.68,0,0,0,2.11-.72,2.72,2.72,0,0,0,.62-1.81h0a2.46,2.46,0,0,0-1.26-2.38h0Zm22.29,8.12.4,1.09-3.66,1.62a5.87,5.87,0,0,1-4.48-1.62,6.08,6.08,0,0,1-1.67-4.48h0a6.65,6.65,0,0,1,1.64-4.63,5.41,5.41,0,0,1,4.24-1.82h0a6,6,0,0,1,3.62,1.12h0l0,.06,0,.51a8.14,8.14,0,0,1-.36,2.49h-1.39l-.29-2.09a5.76,5.76,0,0,0-2.71-.64h0l-.44,0a3.86,3.86,0,0,0-1.49,1.9,7.5,7.5,0,0,0-.47,2.65h0a5.31,5.31,0,0,0,1.14,3.57,3.49,3.49,0,0,0,3,1.23h0Zm9.59-1.58,1.3.09a20.9,20.9,0,0,1-.23,3.91h-9.36l-.1-.58,1.55-.66v-9.59l-1.41-.18,0-.89h5l.11.58a12.59,12.59,0,0,1-1.55.66h0v9.29l4-.25Zm5.78,2.89,1.72.22v.89h-5.37l-.11-.58,1.55-.66v-9.59l-1.4-.18v-.89h5l.11.58a12.28,12.28,0,0,1-1.54.66h0Zm13.66-9.57,0,10.68-2.2.22h0l0,0-6.11-9.55.29,2.36v5.9l1.6.2,0,.89H247l-.11-.58,1.55-.66v-9.6l-1.24-.17,0-.89h3.65l5.92,9.37-.3-2.33v-5.91l-1.78-.24,0-.89h4.84l.11.58a9.22,9.22,0,0,1-1.51.64Zm5.93,9.57,1.73.22,0,.89h-5.37l-.11-.58,1.55-.66v-9.59l-1.4-.18,0-.89h5l.1.58a11.64,11.64,0,0,1-1.54.66h0Zm11.67-1.31.41,1.09-3.66,1.62a5.87,5.87,0,0,1-4.48-1.62,6,6,0,0,1-1.67-4.48h0a6.61,6.61,0,0,1,1.64-4.63,5.41,5.41,0,0,1,4.24-1.82h0A6,6,0,0,1,275.9,123h0v.57a8.14,8.14,0,0,1-.36,2.49h-1.38l-.29-2.09a5.79,5.79,0,0,0-2.71-.64h0l-.44,0a3.75,3.75,0,0,0-1.49,1.9,7.5,7.5,0,0,0-.47,2.65h0a5.36,5.36,0,0,0,1.13,3.57,3.51,3.51,0,0,0,3,1.23h0ZM295.93,133l1.75.27,0,.86h-5.33l-.11-.58a10.31,10.31,0,0,1,1.57-.66h0l-.08-5.69.26-3.08-3.55,9.68v0l-1.84.41-3.62-10,.31,3-.12,5.82,1.54.25,0,.86h-4.73l-.1-.58a13.38,13.38,0,0,1,1.6-.68h0l.31-9.48-1.48-.23,0-.86h4.24l3.36,9.41,3.41-9.41h3.78l.11.59a9.62,9.62,0,0,1-1.42.6h0Zm13.34.07,1.31.17,0,.89h-5.29l-.11-.58a11.22,11.22,0,0,1,1.67-.7h0l-.86-2.2h-4.62l-.91,2.35,1.79.24,0,.89h-4.82l-.11-.58a9.26,9.26,0,0,1,1.51-.64h0l4.15-10.1-.18-.45,1.91-.57Zm-7.44-3.67h3.65l-1.82-4.71Zm14.51-7.32h0a5.31,5.31,0,0,1,4.07,1.75A6.07,6.07,0,0,1,322,128.1h0a5.9,5.9,0,0,1-1.65,4.34,6,6,0,0,1-4.39,1.7h-5.42l-.11-.58,1.54-.66v-9.62l-1.29-.13,0-.91C312.73,122.14,314.61,122.09,316.34,122.09Zm-.58,10.68h0a3.39,3.39,0,0,0,2.78-1.3,5.06,5.06,0,0,0,1.06-3.32h0a6.3,6.3,0,0,0-.67-2.89,4.35,4.35,0,0,0-1.71-1.93h0l-3,.27v9A5.26,5.26,0,0,0,315.76,132.77Zm15.15-2.16,1.24.09a20,20,0,0,1-.22,3.44h-9l-.11-.58,1.55-.66v-9.62l-1.31-.13,0-.91H332l0,.51a15.35,15.35,0,0,1-.25,2.71h-1.26l-.27-1.75-3.62-.23v4.13l4.06-.33V129l-4.06-.16v4l3.77-.22Zm15.56,0,1.23.09a19.08,19.08,0,0,1-.22,3.44h-9l-.11-.58,1.54-.66v-9.62l-1.31-.13,0-.91h8.9l0,.51a15.4,15.4,0,0,1-.26,2.71h-1.25l-.28-1.75-3.62-.23v4.13l4.06-.33V129l-4.06-.16v4l3.77-.22Zm13.4,2.47,1.31.17,0,.89h-5.29l-.11-.58a11.7,11.7,0,0,1,1.67-.7h0l-.85-2.2H352l-.91,2.35,1.78.24,0,.89H348l-.11-.58a9.26,9.26,0,0,1,1.51-.64h0l4.15-10.1-.18-.45,1.91-.57Zm-7.44-3.67h3.66l-1.82-4.71Zm17.64,1.51h0a3.21,3.21,0,0,1-1.2,2.58,4.63,4.63,0,0,1-3.05,1h0a8.37,8.37,0,0,1-2.23-.33,4.73,4.73,0,0,1-1.87-.89h0l0-.05,0-.64a12.22,12.22,0,0,1,.24-2.53h1.15l.58,2.4a5.17,5.17,0,0,0,2.73.69h.4a1.76,1.76,0,0,0,1-1.7h0a2,2,0,0,0-1.24-1.72h0l-2.87-1.48a3.36,3.36,0,0,1-2-2.93h0a3,3,0,0,1,1.25-2.48,5.14,5.14,0,0,1,3.21-1h0a10.5,10.5,0,0,1,3.29.6h0a12.86,12.86,0,0,1-.24,3.22h-1.22l-.34-1.9a4.65,4.65,0,0,0-2.4-.6h0l-.55,0a1.73,1.73,0,0,0-.85,1.57h0c0,.64.43,1.19,1.31,1.65h0l2.72,1.35A3.52,3.52,0,0,1,370.07,130.92Zm7.1-1.42v3.55l1.51.2,0,.89h-5l-.11-.58a10.9,10.9,0,0,1,1.44-.62h0v-3.35l-3.39-6.31-1.14-.15v-.89H375l.11.58-1.11.49,1.83,3.48.5,1.51h.09l2.49-5-1.4-.18,0-.89h4.22l.11.58a8.3,8.3,0,0,1-1.37.58h0Z"/><path class="cls-1" d="M104.89.09C93.66-.56,83.38,2.27,75.31,9.51c4.73,4,14,12.82,14,12.82l6.89,6.77H84.38S63,9.14,56.16,4.1C51.23.45,41,2.36,35.51,3.71A46.69,46.69,0,0,0,17.09,13a46.92,46.92,0,0,0,9.69,78.59c0,44.38,9,80.35,20.08,80.35,10.73,0,19.48-33.6,20.06-75.91,0-3.38,3.23-4.56,6.12-4.71,3.71-.2,11.75,2.1,11.86,6.74.82,41.33,9.45,73.88,20,73.88,10.76,0,19.52-33.87,20-76.4,15.84-8.23,26.83-25.86,26.83-46.35,0-28.35-21.2-47.61-46.87-49.1"/></g></g></svg>