<svg xmlns="http://www.w3.org/2000/svg" viewBox="0 0 460.06 139.85"><defs><style>.cls-1{fill:#fff;}</style></defs><title>Asset 2@Colored</title><g id="Layer_2" data-name="Layer 2"><g id="Layer_1-2" data-name="Layer 1"><path id="o-0" class="cls-1" d="M135.91,92.54H456.78a3.11,3.11,0,0,1,3.28,2.88h0a3.09,3.09,0,0,1-3.28,2.87H135.91a3.09,3.09,0,0,1-3.27-2.87h0A3.09,3.09,0,0,1,135.91,92.54Z"/><path id="text-0" class="cls-1" d="M181.43,53.61q0,32.17-30.78,32.17H133.46V22.09h16.08q14.43,0,23.16,6.75T181.43,53.61Zm-15.53,0q0-11.85-3.68-16.23T151.75,33h-3.22V74.84h3.22q6.88,0,10.53-4.74T165.9,53.61Zm41.54-20.77V48.19H229.5V58.67H207.44V74.93H234V85.78H192.37V22.09H234l-1.56,10.75ZM271,85.78,254.29,34.59q.93,7,1.58,13.45t.65,13.75h0v24H243.74V22.09h18.82l16.2,51a173.72,173.72,0,0,1-2.21-26.66h0V22.09h12.78V85.78ZM329.1,33.67V85.78H314V33.67H296.11V22.09h51.56L346.2,33.67Zm43.74-.83V48.19h22.05V58.67H372.84V74.93H399.4V85.78H357.77V22.09h41.64l-1.57,10.75Zm33.27-10.75h16.26l9.56,20.4,9.83-20.4h15.9l-16.9,29.22,18.47,34.47H443L431.76,61.52l-11,24.26h-16l18-33.82Z"/><path id="text-1" class="cls-1" d="M139.36,112.75v3.55l1.51.2v.89h-5l-.11-.58a12.1,12.1,0,0,1,1.43-.62h0v-3.35l-3.35-6.31-1.15-.15v-.89h4.5l.1.58-1.11.49L138,110l.49,1.51h.09l2.5-5-1.4-.18v-.89h4.22l.11.58a7.72,7.72,0,0,1-1.36.58h0Zm10.13-7.62h0a5.4,5.4,0,0,1,4.16,1.79,6.61,6.61,0,0,1,1.64,4.66h0a6.34,6.34,0,0,1-1.58,4.48,5.33,5.33,0,0,1-4.09,1.69h0a5.4,5.4,0,0,1-4.16-1.72,6.26,6.26,0,0,1-1.63-4.52h0a6.63,6.63,0,0,1,1.6-4.6,5.21,5.21,0,0,1,4.06-1.78Zm-1.78,1.71h0a3.64,3.64,0,0,0-1.09,1.73,8.24,8.24,0,0,0-.41,2.65h0a6.09,6.09,0,0,0,1,3.69,3.2,3.2,0,0,0,2.72,1.39h0a4.6,4.6,0,0,0,1.22-.17h0a3.81,3.81,0,0,0,1.24-1.76,7.26,7.26,0,0,0,.47-2.69h0a6.37,6.37,0,0,0-1-3.72,3.1,3.1,0,0,0-2.63-1.41h0a4.61,4.61,0,0,0-1.52.29Zm20.68-1.35.11.58a11.1,11.1,0,0,1-1.55.66h0v5.52c-.06,3.63-1.57,5.44-4.55,5.44h0a5,5,0,0,1-3.82-1.47,5.73,5.73,0,0,1-1.42-4.06h0v-5.64l-1.39-.18v-.89h5l.11.58a11,11,0,0,1-1.54.66h0v5.76a4,4,0,0,0,.84,2.76,2.93,2.93,0,0,0,2.34,1h0a3.51,3.51,0,0,0,1.65-.38h0q1.08-.87,1.08-3.51h0v-5.73l-1.59-.2v-.89Zm10.75,10.86,1.2.15v.89h-3.2l-2.55-4.68h-1.84v3.54l1.8.24v.89h-5.44l-.11-.58,1.54-.66v-9.62l-1.31-.13v-.91l5.44-.15a5.11,5.11,0,0,1,3.29,1,3.22,3.22,0,0,1,1.26,2.59h0a3.49,3.49,0,0,1-.66,2,3.89,3.89,0,0,1-1.85,1.4h0Zm-6.41-9.5v4.5a8.09,8.09,0,0,0,1.39.14h0a2.67,2.67,0,0,0,2.11-.72,2.71,2.71,0,0,0,.62-1.81h0a2.48,2.48,0,0,0-1.26-2.38h0ZM195,115l.4,1.09-3.66,1.62a5.85,5.85,0,0,1-4.48-1.62,6,6,0,0,1-1.67-4.48h0a6.63,6.63,0,0,1,1.64-4.63,5.42,5.42,0,0,1,4.24-1.82h0a6.11,6.11,0,0,1,3.62,1.12h0v.57a8,8,0,0,1-.36,2.49h-1.39l-.29-2.09a5.81,5.81,0,0,0-2.71-.64h-.44a3.88,3.88,0,0,0-1.49,1.9,7.3,7.3,0,0,0-.47,2.65h0a5.29,5.29,0,0,0,1.14,3.57,3.48,3.48,0,0,0,3,1.23h0Zm9.59-1.58,1.3.09a21.28,21.28,0,0,1-.23,3.91h-9.36l-.1-.58,1.55-.66v-9.59l-1.41-.18v-.89h5l.11.58a11.1,11.1,0,0,1-1.55.66h0V116l4-.25Zm5.78,2.89,1.72.22v.89h-5.37l-.11-.58,1.55-.66v-9.59l-1.4-.18v-.89h5l.11.58a11,11,0,0,1-1.54.66h0Zm13.66-9.57v10.68l-2.2.22h0l-6.11-9.55.29,2.36v5.9l1.6.2v.89h-4.79l-.11-.58,1.55-.66v-9.6L213,106.4v-.89h3.65l5.92,9.37-.3-2.33v-5.91l-1.78-.24v-.89h4.84l.11.58a9.5,9.5,0,0,1-1.51.64Zm5.93,9.57,1.73.22v.89h-5.37l-.11-.58,1.55-.66v-9.59l-1.4-.18v-.89h5l.1.58a11,11,0,0,1-1.54.66h0ZM241.65,115l.41,1.09-3.66,1.62a5.85,5.85,0,0,1-4.48-1.62,6,6,0,0,1-1.67-4.48h0a6.63,6.63,0,0,1,1.64-4.63,5.42,5.42,0,0,1,4.24-1.82h0a6.06,6.06,0,0,1,3.61,1.12h0v.57a8,8,0,0,1-.36,2.49H240l-.29-2.09a5.81,5.81,0,0,0-2.71-.64h-.44a3.74,3.74,0,0,0-1.49,1.9,7.3,7.3,0,0,0-.47,2.65h0a5.29,5.29,0,0,0,1.13,3.57,3.48,3.48,0,0,0,3,1.23h0Zm20.12,1.28,1.75.27v.86h-5.33l-.11-.58a10.85,10.85,0,0,1,1.57-.66h0l-.08-5.69.26-3.08-3.55,9.68h0l-1.84.41-3.62-10,.31,3-.12,5.82,1.54.25v.86h-4.73l-.1-.58a13.24,13.24,0,0,1,1.6-.68h0l.31-9.48-1.48-.23v-.86h4.24l3.36,9.41,3.41-9.41h3.78l.11.59a9.3,9.3,0,0,1-1.42.6h0Zm13.34.07,1.31.17v.89h-5.29l-.11-.58a11.12,11.12,0,0,1,1.67-.7h0l-.86-2.2h-4.62l-.91,2.35,1.79.24v.89h-4.82l-.11-.58a10.06,10.06,0,0,1,1.51-.64h0l4.15-10.1-.18-.45,1.91-.57Zm-7.44-3.67h3.65l-1.82-4.71Zm14.51-7.32h0a5.33,5.33,0,0,1,4.07,1.75,6.13,6.13,0,0,1,1.59,4.27h0a5.93,5.93,0,0,1-1.65,4.34,6,6,0,0,1-4.39,1.7h-5.42l-.11-.58,1.54-.66v-9.62l-1.29-.13v-.91c2.05-.1,3.93-.15,5.66-.15ZM281.6,116h0a3.39,3.39,0,0,0,2.78-1.3,5.08,5.08,0,0,0,1.06-3.32h0a6.32,6.32,0,0,0-.67-2.89,4.38,4.38,0,0,0-1.71-1.93h0l-3,.27v9a5,5,0,0,0,1.54.18Zm15.15-2.16,1.24.09a20.85,20.85,0,0,1-.22,3.44h-9l-.11-.58,1.55-.66v-9.62l-1.31-.13v-.91h8.94V106a15.35,15.35,0,0,1-.25,2.71h-1.26l-.27-1.75-3.62-.23v4.13l4.06-.33v1.73l-4.06-.16v4l3.77-.22Zm15.56,0,1.23.09a18.82,18.82,0,0,1-.22,3.44h-9l-.11-.58,1.54-.66v-9.62l-1.31-.13v-.91h8.9V106a16.37,16.37,0,0,1-.26,2.71h-1.25l-.28-1.75-3.62-.23v4.13l4.06-.33v1.73l-4.06-.16v4l3.77-.22Zm13.4,2.47,1.31.17v.89h-5.29l-.11-.58a12.26,12.26,0,0,1,1.67-.7h0l-.85-2.2h-4.6l-.91,2.35,1.78.24v.89h-4.87l-.11-.58a10.06,10.06,0,0,1,1.51-.64h0l4.15-10.1-.18-.45,1.91-.57Zm-7.44-3.67h3.66l-1.82-4.71Zm17.64,1.51h0a3.21,3.21,0,0,1-1.2,2.58,4.63,4.63,0,0,1-3,1h0a8.35,8.35,0,0,1-2.23-.33,4.69,4.69,0,0,1-1.87-.89h0v-.69a12,12,0,0,1,.24-2.53H329l.58,2.4a5.12,5.12,0,0,0,2.73.69h.4a1.77,1.77,0,0,0,1-1.7h0a2,2,0,0,0-1.24-1.72h0l-2.87-1.48a3.34,3.34,0,0,1-2-2.93h0a3,3,0,0,1,1.25-2.48,5.21,5.21,0,0,1,3.21-1h0a10.86,10.86,0,0,1,3.29.6h0a13.38,13.38,0,0,1-.24,3.22h-1.22l-.34-1.9a4.68,4.68,0,0,0-2.4-.6h-.55a1.74,1.74,0,0,0-.85,1.57h0c0,.64.43,1.19,1.31,1.65h0l2.72,1.35a3.53,3.53,0,0,1,2.18,3.2Zm7.1-1.42v3.55l1.51.2v.89h-5l-.11-.58a10.24,10.24,0,0,1,1.44-.62h0v-3.35l-3.39-6.31-1.14-.15v-.89h4.52l.11.58-1.11.49,1.83,3.48.5,1.51h.09l2.49-5-1.4-.18v-.89h4.22l.11.58a7.82,7.82,0,0,1-1.37.58h0Z"/><path class="cls-1" d="M85.31.07C76.18-.46,67.82,1.85,61.25,7.74,65.1,11,72.64,18.16,72.64,18.16l5.6,5.51H68.63S51.24,7.43,45.68,3.34c-4-3-12.33-1.42-16.8-.32a38.17,38.17,0,0,0-7.1,71.48c0,36.09,7.32,65.35,16.33,65.35,8.73,0,15.85-27.33,16.32-61.74,0-2.75,2.63-3.71,5-3.83,3-.17,9.55,1.7,9.64,5.48.67,33.61,7.69,60.09,16.27,60.09,8.75,0,15.88-27.55,16.27-62.14,12.88-6.7,21.82-21,21.82-37.7C123.41,17,106.17,1.29,85.29.07"/></g></g></svg>